<svg height="429pt" viewBox="0 0 429.96113 429" width="429pt" xmlns="http://www.w3.org/2000/svg"><path fill="#f44336" d="m215 .480469c-86.960938-.015625-165.363281 52.363281-198.640625 132.707031-33.273437 80.34375-14.867187 172.820312 46.640625 234.292969 83.949219 83.949219 220.054688 83.949219 304 0 83.949219-83.945313 83.949219-220.050781 0-304-40.222656-40.453125-94.953125-63.136719-152-63zm81.5 282.402343c1.875 1.867188 2.925781 4.402344 2.925781 7.046876 0 2.648437-1.050781 5.183593-2.925781 7.050781-1.875 1.890625-4.4375 2.9375-7.097656 2.902343-2.65625-.011718-5.199219-1.050781-7.101563-2.902343l-67.699219-67.699219-71.199218 71.199219c-1.878906 1.890625-4.441406 2.9375-7.101563 2.902343-2.652343-.011718-5.199219-1.050781-7.101562-2.902343-1.871094-1.867188-2.921875-4.402344-2.921875-7.050781 0-2.644532 1.050781-5.179688 2.921875-7.046876l71.203125-71.203124-71.203125-71.199219c-3.890625-3.894531-3.890625-10.207031 0-14.097657 3.894531-3.894531 10.207031-3.894531 14.101562 0l71.199219 71.199219 67.699219-67.699219c3.894531-3.894531 10.207031-3.894531 14.101562 0 3.894531 3.890626 3.894531 10.203126 0 14.097657l-67.699219 67.699219zm0 0"/></svg>