<?xml version="1.0" encoding="iso-8859-1"?>
<!-- Generator: Adobe Illustrator 19.0.0, SVG Export Plug-In . SVG Version: 6.00 Build 0)  -->
<svg version="1.1" id="Layer_1" xmlns="http://www.w3.org/2000/svg" xmlns:xlink="http://www.w3.org/1999/xlink" x="0px" y="0px"
	 viewBox="0 0 512 512" style="enable-background:new 0 0 512 512;" xml:space="preserve">
<g>
	<g>
		<path fill="#f44336" d="M256,0C161.899,0,85.333,76.565,85.333,170.667c0,86.869,65.28,158.635,149.333,169.195v150.805
			c0,11.776,9.536,21.333,21.333,21.333s21.333-9.557,21.333-21.333V339.861c84.053-10.56,149.333-82.325,149.333-169.195
			C426.667,76.565,350.101,0,256,0z M313.749,198.251c8.341,8.341,8.341,21.824,0,30.165c-4.16,4.16-9.621,6.251-15.083,6.251
			c-5.461,0-10.923-2.091-15.083-6.251L256,200.832l-27.584,27.584c-4.16,4.16-9.621,6.251-15.083,6.251
			c-5.461,0-10.923-2.091-15.083-6.251c-8.341-8.341-8.341-21.824,0-30.165l27.584-27.584l-27.584-27.584
			c-8.341-8.341-8.341-21.824,0-30.165c8.341-8.341,21.824-8.341,30.165,0L256,140.501l27.584-27.584
			c8.341-8.341,21.824-8.341,30.165,0c8.341,8.341,8.341,21.824,0,30.165l-27.584,27.584L313.749,198.251z"/>
	</g>
</g>
<g>
</g>
<g>
</g>
<g>
</g>
<g>
</g>
<g>
</g>
<g>
</g>
<g>
</g>
<g>
</g>
<g>
</g>
<g>
</g>
<g>
</g>
<g>
</g>
<g>
</g>
<g>
</g>
<g>
</g>
</svg>
