<?xml version="1.0" encoding="iso-8859-1"?>
<!-- Generator: Adobe Illustrator 19.0.0, SVG Export Plug-In . SVG Version: 6.00 Build 0)  -->
<svg version="1.1" id="Capa_1" xmlns="http://www.w3.org/2000/svg" xmlns:xlink="http://www.w3.org/1999/xlink" x="0px" y="0px"
	 viewBox="0 0 514.56 514.56" style="enable-background:new 0 0 514.56 514.56;" xml:space="preserve">
<g>
	<g>
		<path fill="#fff" d="M499.2,335.967h-12.8V51.807c0-12.8-10.24-23.04-25.6-23.04H284.16l-2.56-10.24c-2.56-10.24-12.8-17.92-25.6-17.92
			s-20.48,5.12-25.6,17.92l-2.56,10.24H51.2c-15.36,0-25.6,10.24-25.6,23.04v284.16H12.8c-7.68,0-12.8,5.12-12.8,12.8v25.6
			c0,7.68,5.12,12.8,12.8,12.8h97.28l-30.72,94.72c-5.12,12.8,5.12,28.16,17.92,30.72c12.8,5.12,28.16-5.12,30.72-17.92
			l35.84-110.08h186.88l35.84,110.08c7.68,23.04,28.16,17.92,30.72,17.92c12.8-5.12,20.48-17.92,17.92-30.72l-30.72-94.72h97.28
			c7.68,0,12.8-5.12,12.8-12.8v-25.6C512,341.087,506.88,335.967,499.2,335.967z M332.8,259.167H102.4
			c-15.36,0-25.6-10.24-25.6-25.6c0-15.36,10.24-25.6,25.6-25.6h230.4c15.36,0,25.6,10.24,25.6,25.6
			C358.4,246.367,345.6,259.167,332.8,259.167z M409.6,156.767H102.4c-15.36,0-25.6-10.24-25.6-25.6s10.24-25.6,25.6-25.6h307.2
			c15.36,0,25.6,10.24,25.6,25.6C435.2,143.967,422.4,156.767,409.6,156.767z"/>
	</g>
</g>
</svg>
