<svg height="512pt" viewBox="0 -26 512 512" width="512pt" xmlns="http://www.w3.org/2000/svg"><path d="m377.429688 138.984375c-11.46875 0-20.800782 9.339844-20.800782 20.808594v73.246093c0 11.46875 9.332032 20.808594 20.800782 20.808594h20.808593v-94.054687c0-11.46875-9.328125-20.808594-20.808593-20.808594zm0 0"/><path d="m256.179688 138.984375c-11.46875 0-20.800782 9.339844-20.800782 20.808594v41.628906h41.609375v-41.628906c0-11.46875-9.328125-20.808594-20.808593-20.808594zm0 0"/><path fill="#fff" d="m422.261719 0h-331.441407c-50.082031 0-90.820312 40.648438-90.820312 90.605469v338.867187c0 11.996094 7.28125 22.957032 18.558594 27.925782 3.980468 1.75 8.210937 2.601562 12.402344 2.601562 7.5 0 14.890624-2.738281 20.617187-7.949219 41.550781-37.589843 95.320313-58.289062 151.421875-58.289062h.019531l219.300781.011719c49.449219 0 89.679688-40.320313 89.679688-89.878907v-214.359375c0-49.367187-40.261719-89.535156-89.738281-89.535156zm-246.023438 202.242188c8.28125 0 15 6.707031 15 14.996093 0 8.28125-6.71875 15-15 15h-56.609375v36.609375c0 8.28125-6.71875 15-15 15-8.289062 0-15-6.722656-15-15v-121.683594c0-21.050781 17.121094-38.179687 38.171875-38.179687h48.4375c8.28125 0 15 6.722656 15 15 0 8.289063-6.71875 15-15 15h-48.4375c-4.511719 0-8.171875 3.667969-8.171875 8.179687v55.078126zm130.75 66.605468c0 8.28125-6.71875 15-15 15-8.277343 0-15-6.71875-15-15v-37.425781h-41.609375v37.425781c0 8.28125-6.71875 15-15 15-8.289062 0-15-6.71875-15-15v-109.054687c0-28.007813 22.792969-50.808594 50.800782-50.808594 28.019531 0 50.808593 22.800781 50.808593 50.808594zm133.132813 15h-62.691406c-28.007813 0-50.800782-22.789062-50.800782-50.808594v-73.246093c0-28.007813 22.792969-50.808594 50.800782-50.808594 28.019531 0 50.808593 22.800781 50.808593 50.808594v94.054687h11.882813c8.277344 0 15 6.710938 15 15 0 8.28125-6.722656 15-15 15zm0 0"/></svg>