<?xml version="1.0" encoding="iso-8859-1"?>
<!-- Generator: Adobe Illustrator 19.0.0, SVG Export Plug-In . SVG Version: 6.00 Build 0)  -->
<svg version="1.1" id="Layer_1" xmlns="http://www.w3.org/2000/svg" xmlns:xlink="http://www.w3.org/1999/xlink" x="0px" y="0px"
	 viewBox="0 0 297.001 297.001" style="enable-background:new 0 0 297.001 297.001;" xml:space="preserve">
<g>
	<g>
		<g>
			<path fill="#fff" d="M181.951,221.679c-2.128,0-4.168-0.845-5.674-2.35l-28.712-28.712c-4.43,6.591-7.02,14.517-7.02,23.039
				c0,22.831,18.574,41.405,41.405,41.405c20.087,0,36.871-14.378,40.619-33.382L181.951,221.679L181.951,221.679z"/>
			<path fill="#fff" d="M181.951,172.251c-8.521,0-16.447,2.589-23.038,7.02l26.361,26.362h37.296
				C218.824,186.629,202.039,172.251,181.951,172.251z"/>
			<path fill="#fff" d="M247.253,32.953h-33.063v9.721c0,12.809-10.421,23.23-23.23,23.23h-84.919c-12.809,0-23.23-10.421-23.23-23.23v-9.721
				H49.748c-4.719,0-8.557,3.838-8.557,8.556v246.935c0,4.719,3.838,8.557,8.557,8.557h197.506c4.719,0,8.557-3.838,8.557-8.557
				V41.509C255.811,36.791,251.972,32.953,247.253,32.953z M66.12,90.3h82.38c4.431,0,8.023,3.592,8.023,8.023
				c0,4.431-3.592,8.023-8.023,8.023H66.12c-4.431,0-8.023-3.592-8.023-8.023C58.097,93.892,61.69,90.3,66.12,90.3z M115.548,172.25
				H66.12c-4.431,0-8.023-3.592-8.023-8.023c0-4.431,3.592-8.023,8.023-8.023h49.428c4.431,0,8.023,3.592,8.023,8.023
				C123.571,168.658,119.979,172.25,115.548,172.25z M115.548,139.298H66.12c-4.431,0-8.023-3.592-8.023-8.023
				c0-4.431,3.592-8.023,8.023-8.023h49.428c4.431,0,8.023,3.592,8.023,8.023C123.571,135.705,119.979,139.298,115.548,139.298z
				 M181.951,271.107c-31.678,0-57.451-25.773-57.451-57.451c0-31.679,25.773-57.452,57.451-57.452
				c31.679,0,57.452,25.773,57.452,57.452C239.404,245.334,213.631,271.107,181.951,271.107z"/>
			<path fill="#fff" d="M106.042,49.858h84.919c3.962,0,7.184-3.222,7.184-7.184V23.66c0-3.962-3.222-7.184-7.184-7.184h-25.983
				c-4.431,0-8.023-3.592-8.023-8.023c0-4.661-3.792-8.453-8.453-8.453c-4.661,0-8.453,3.792-8.453,8.453
				c0,4.431-3.592,8.023-8.023,8.023h-25.983c-3.962,0-7.184,3.222-7.184,7.184v19.014C98.857,46.636,102.079,49.858,106.042,49.858
				z"/>
		</g>
	</g>
</g>
<g>
</g>
<g>
</g>
<g>
</g>
<g>
</g>
<g>
</g>
<g>
</g>
<g>
</g>
<g>
</g>
<g>
</g>
<g>
</g>
<g>
</g>
<g>
</g>
<g>
</g>
<g>
</g>
<g>
</g>
</svg>
